<?xml version="1.0" encoding="utf-8"?>
<!-- Generator: Adobe Illustrator 27.0.0, SVG Export Plug-In . SVG Version: 6.00 Build 0)  -->
<svg version="1.1" id="圖層_1" xmlns="http://www.w3.org/2000/svg" xmlns:xlink="http://www.w3.org/1999/xlink" x="0px" y="0px"
	 viewBox="0 0 89.7 50.9" style="enable-background:new 0 0 89.7 50.9;" xml:space="preserve">
<style type="text/css">
	.st0{fill:#F2AB39;}
</style>
<g id="Layer_21">
	<path class="st0" d="M86.9,26.8l-3.3-1.1C81.8,25,80.2,24,79,22.5l-0.2-0.2c-2.4-3-6-4.7-9.8-4.7H55.4L34.9,5.3
		c-0.2-0.1-0.5-0.2-0.7-0.2h-6.9c-0.8,0-1.4,0.6-1.4,1.4c0,0.4,0.1,0.7,0.4,1l10.1,10.1H19.6L8.9,1.6C8.7,1.2,8.2,0.9,7.8,0.9H2.2
		c-0.8,0-1.4,0.6-1.4,1.4c0,0.2,0,0.3,0.1,0.4l4.9,14.8H4.9c-2.3,0-4.1,1.8-4.1,4.1c0,1.4,0.7,2.7,1.9,3.4l2.1,1.4L1,32.1
		c-0.4,0.6-0.3,1.5,0.4,1.9c0.2,0.2,0.5,0.2,0.8,0.2H5c0.3,0,0.6-0.1,0.8-0.3l11.1-8.3c0.6-0.5,0.7-1.3,0.3-1.9
		c-0.3-0.3-0.7-0.6-1.1-0.6H7.8c-0.5,0-0.9,0.2-1.2,0.6l-0.3,0.4l-2.2-1.4c-0.6-0.4-0.8-1.2-0.4-1.8c0.2-0.4,0.6-0.6,1.1-0.6h64.2
		c1.8,0,3.5,0.5,5,1.4h-0.3c-1.9,0-3.5,1.6-3.5,3.5s1.6,3.5,3.5,3.5h10.1c0,0,0,0,0.1,0l2.1,0.7c0.6,0.2,1,0.7,1,1.3v0.2
		c0,0.6-0.4,1.1-1,1.3l-3,1c-2.1,0.7-4.4,1.1-6.6,1.1H55.5l0.4-0.3c0.6-0.5,0.7-1.3,0.3-1.9c-0.3-0.3-0.7-0.6-1.1-0.6H39.7
		c-0.4,0-0.8,0.2-1,0.5l-2.1,2.3h-8.4c-4,0-7.9-1.1-11.3-3.3L16,30.4c-0.6-0.4-1.5-0.2-1.9,0.4c-0.4,0.6-0.2,1.5,0.4,1.9l0,0
		l0.9,0.6c3.8,2.4,8.2,3.8,12.8,3.8H34L23.4,48.6c-0.5,0.6-0.5,1.4,0.1,2c0.3,0.2,0.6,0.4,0.9,0.4h8.3c0.3,0,0.6-0.1,0.8-0.3
		L51.7,37h24.6c2.5,0,5.1-0.4,7.5-1.2l3-1c1.7-0.6,2.8-2.2,2.8-4v-0.2C89.7,28.9,88.6,27.3,86.9,26.8z M8.5,25.9h3.4l-6.8,5.1
		L8.5,25.9z M8.8,17.6L4.1,3.7H7l9.3,13.9H8.8z M40.3,17.6l-9.7-9.7h3.2L50,17.6H40.3z M73.1,25.2c0-0.4,0.3-0.7,0.7-0.7h3.4
		c0.4,0.5,0.9,1,1.4,1.4h-4.8C73.4,25.9,73.1,25.6,73.1,25.2z M32.3,48.1h-4.7l12.7-13.9h10.5L32.3,48.1z"/>
	<path class="st0" d="M64.7,27.3v-1.4c0-0.8-0.6-1.4-1.4-1.4c-0.8,0-1.4,0.6-1.4,1.4v1.4c0,0.8,0.6,1.4,1.4,1.4
		C64.1,28.7,64.7,28.1,64.7,27.3z"/>
	<path class="st0" d="M57.8,28.7c0.8,0,1.4-0.6,1.4-1.4v-1.4c0-0.8-0.6-1.4-1.4-1.4c-0.8,0-1.4,0.6-1.4,1.4v1.4
		C56.4,28.1,57,28.7,57.8,28.7z"/>
	<path class="st0" d="M53.6,27.3v-1.4c0-0.8-0.6-1.4-1.4-1.4s-1.4,0.6-1.4,1.4v1.4c0,0.8,0.6,1.4,1.4,1.4S53.6,28.1,53.6,27.3z"/>
	<path class="st0" d="M48,27.3v-1.4c0-0.8-0.6-1.4-1.4-1.4s-1.4,0.6-1.4,1.4v1.4c0,0.8,0.6,1.4,1.4,1.4S48,28.1,48,27.3z"/>
	<path class="st0" d="M42.5,27.3v-1.4c0-0.8-0.6-1.4-1.4-1.4c-0.8,0-1.4,0.6-1.4,1.4v1.4c0,0.8,0.6,1.4,1.4,1.4
		C41.9,28.7,42.5,28.1,42.5,27.3z"/>
	<path class="st0" d="M36.9,27.3v-1.4c0-0.8-0.6-1.4-1.4-1.4s-1.4,0.6-1.4,1.4v1.4c0,0.8,0.6,1.4,1.4,1.4S36.9,28.1,36.9,27.3z"/>
	<path class="st0" d="M31.4,27.3v-1.4c0-0.8-0.6-1.4-1.4-1.4s-1.4,0.6-1.4,1.4v1.4c0,0.8,0.6,1.4,1.4,1.4S31.4,28.1,31.4,27.3z"/>
	<path class="st0" d="M25.8,27.3v-1.4c0-0.8-0.6-1.4-1.4-1.4c-0.8,0-1.4,0.6-1.4,1.4v1.4c0,0.8,0.6,1.4,1.4,1.4
		C25.2,28.7,25.8,28.1,25.8,27.3z"/>
</g>
</svg>
