<?xml version="1.0" encoding="utf-8"?>
<!-- Generator: Adobe Illustrator 27.0.0, SVG Export Plug-In . SVG Version: 6.00 Build 0)  -->
<svg version="1.1" id="Capa_1" xmlns="http://www.w3.org/2000/svg" xmlns:xlink="http://www.w3.org/1999/xlink" x="0px" y="0px"
	 viewBox="0 0 50 50" style="enable-background:new 0 0 50 50;" xml:space="preserve">
<style type="text/css">
	.st0{fill:#F2AB39;}
</style>
<g>
	<g>
		<path class="st0" d="M37.8,45.3c-0.3-0.5-0.9-0.6-1.3-0.4l0,0c-0.5,0.3-0.6,0.9-0.4,1.3c0.2,0.3,0.5,0.5,0.8,0.5
			c0.2,0,0.3,0,0.5-0.1l0,0C38,46.3,38.1,45.7,37.8,45.3z"/>
	</g>
</g>
<g>
	<g>
		<path class="st0" d="M46.6,12.4c-3.3-5.8-8.7-9.9-15.2-11.7S18.3,0,12.5,3.3S2.6,12,0.8,18.5S0,31.7,3.3,37.4
			c3,5.2,7.8,9.1,13.4,11.1c2.7,0.9,5.5,1.4,8.3,1.4c3,0,6.1-0.5,8.9-1.7c0.5-0.2,0.8-0.8,0.6-1.3s-0.8-0.8-1.3-0.6
			c-7.6,2.9-15.9,1.6-22-3l0.9-4.6l0.4-0.1c1.6-0.5,2.5-2.2,2-3.8L14.1,34c-0.1-0.2-0.1-0.4,0-0.7c0.3-0.8,0.2-1.7-0.3-2.5
			c-0.4-0.8-1.2-1.3-2-1.4l-2.2-0.4l-4.2-3.2c-0.3-0.2-0.6-0.3-0.9-0.2L2,26.3c0-0.9,0-1.8,0-2.7c0.1,0.1,0.2,0.2,0.2,0.2
			c0,0.1,0.1,0.2,0.2,0.2c0.2,0.2,0.4,0.3,0.8,0.3c0.4,0,0.9-0.1,1.7-0.2c0.8-0.1,1.6-0.3,1.7-0.3c0.3-0.1,0.6-0.3,0.7-0.6
			c0.1-0.3,0.1-0.7-0.1-0.9L6,20.6l1.7-1.2c0.1-0.1,0.2-0.2,0.3-0.3l2.7-4.6l1.1-1.2c1.1-1.2,1.4-2.9,0.8-4.4
			c-0.4-0.9-1-1.6-1.8-2.1c0.8-0.7,1.8-1.3,2.7-1.8c3.5-2.1,7.4-3,11.3-3.1L23,4.1l-6.5,2.3c-0.3,0.1-0.5,0.3-0.6,0.5l-1.8,4.4
			C14,11.6,14,12,14.2,12.2l2.6,3.7c-0.4,0.3-0.7,0.8-1.2,1.5c-0.2,0.3-0.4,0.5-0.5,0.7c-0.1,0.1-0.2,0.3-0.3,0.4
			c-0.6,0.6-1.2,1.3-1.6,2.2c-0.9,1.9-0.7,4.2,0.5,5.9c1.2,1.6,3.1,2.5,5.2,2.2c0.3,0,0.7-0.1,1-0.2c0.8-0.2,1.1-0.2,1.4,0
			c0.1,0.1,0.1,0.1,0.1,0.6c0,0.3,0,0.6,0.1,1c0.1,0.6,0.5,1,0.8,1.3c0.1,0.2,0.3,0.3,0.4,0.4c0.3,0.7,0.2,1.1-0.1,2
			c0,0.1,0,0.2-0.1,0.2c-0.4,1.4,0.2,2.7,0.7,3.9c0.2,0.4,0.3,0.8,0.4,1.1c0.9,2.6,1.5,3.2,2.1,3.4c0.3,0.1,0.6,0.2,0.8,0.2
			c1.4,0,2.9-1.3,3.6-2.1c0.4-0.5,0.5-1,0.6-1.4c0-0.2,0.1-0.3,0.1-0.4c0.1-0.1,0.2-0.3,0.3-0.4c0.3-0.3,0.6-0.7,0.8-1.3
			c0.2-0.5,0.3-0.6,0.7-1c0.1-0.1,0.1-0.1,0.2-0.2c1.3-1.4,1-2.5,0.6-3.6c-0.3-1,0.2-1.6,1.5-2.8c0.5-0.5,1.1-1,1.6-1.7
			c0.2-0.3,0.8-1.1,0.4-2c-0.4-0.8-1.3-1-2-1.1c-0.3,0-0.7-0.1-0.8-0.2c-0.6-0.4-1-1.2-1.3-2c-0.1-0.2-0.1-0.3-0.2-0.5
			c-0.1-0.3-0.3-0.6-0.4-0.9c-0.4-0.9-0.8-2-1.4-2.7c-0.6-0.7-1.8-1-2.8-1.2c-0.3-0.1-0.7-0.2-0.9-0.3c-0.2-0.1-0.4-0.1-0.6,0
			c-0.5,0.1-0.8,0.2-1,0.4c-0.1,0-0.2,0.2-0.4,0.5c-0.4-0.2-0.8-0.5-1.2-0.7c0,0,0,0,0,0c0.1-0.4,0-0.7-0.1-0.9
			c-0.5-1.2-2.4-1.1-2.7-1c-0.2,0-0.5,0-0.7,0c-0.4,0-0.9,0-1.4,0.1l0-0.1c0.4-1,1.3-1.7,2.3-1.7h0.6c0.5,0,1-0.4,1-1
			c0-0.5-0.4-1-1-1h-0.5c-1.6,0-3,0.8-3.8,2.1l-1.5-2L17.6,8l6.3-2.2c0.2-0.1,0.3-0.2,0.4-0.3L27.1,2C34.3,2.7,41.1,6.7,45,13.4
			c1,1.8,1.8,3.7,2.3,5.6l-0.4,0.4c-0.5,0.5-0.9,1.2-0.9,1.9c0,0,0,0,0,0l-0.7-1.9c-0.1-0.3-0.2-0.5-0.4-0.8l-1.2-1.4
			c-0.5-0.5-1.1-0.9-1.9-0.9h-1.5c-0.5,0-1,0.3-1.3,0.7c-0.2,0.5-0.2,1,0.1,1.5l0.1,0.2c-0.9,0.8-2.1,1.5-3.2,1.9l-2-3.9V16
			c0-0.3-0.1-0.5-0.3-0.7l-1.8-1.7c-0.1-0.1-0.2-0.2-0.4-0.2l-1.6-0.6c-0.5-0.2-1.1,0.1-1.2,0.6c-0.2,0.5,0.1,1.1,0.6,1.2l1.4,0.5
			l1.4,1.3v0.7c0,0.2,0,0.3,0.1,0.4l2.5,4.8c0.2,0.4,0.7,0.6,1.2,0.5l0.7-0.3c1.7-0.6,3.3-1.6,4.6-2.9c0.3-0.3,0.4-0.8,0.1-1.2
			l0-0.1h0.5c0.1,0,0.3,0.1,0.4,0.2l1.2,1.4c0,0,0.1,0.1,0.1,0.2l1.3,3.7c0.1,0.3,0.4,0.5,0.7,0.6c0.1,0,0.1,0,0.2,0
			c0.3,0,0.5-0.1,0.7-0.3l0.6-0.6c0.4-0.4,0.7-0.9,0.8-1.5c1,7.8-2.1,15.9-8.6,21c-0.4,0.3-0.5,0.9-0.2,1.4c0.3,0.4,0.9,0.5,1.4,0.2
			c4.7-3.7,7.9-8.9,9.1-14.8C50.7,23.8,49.7,17.7,46.6,12.4z M4.6,27.5l4,3.1c0.1,0.1,0.3,0.2,0.4,0.2l2.4,0.5
			c0.3,0.1,0.6,0.2,0.7,0.5c0.2,0.3,0.2,0.6,0.1,0.9c-0.2,0.6-0.2,1.3,0,1.9l0.3,0.9c0.2,0.6-0.1,1.2-0.7,1.4l-1,0.3
			c-0.3,0.1-0.6,0.4-0.7,0.7L9.5,42c-1.7-1.6-3.2-3.4-4.5-5.5c-1.5-2.6-2.4-5.3-2.8-8.1L4.6,27.5z M10.3,12l-1.2,1.2
			c0,0.1-0.1,0.1-0.1,0.2l-2.6,4.6l-2.3,1.7c-0.4,0.3-0.5,0.9-0.2,1.3l0.9,1.3c-0.5,0.1-0.9,0.1-1.3,0.2c-0.1-0.1-0.1-0.1-0.2-0.2
			c-0.2-0.2-0.6-0.5-1-0.9C3,16.4,5.4,11.8,9.1,8.2c0.7,0.2,1.3,0.8,1.6,1.4C11,10.5,10.9,11.4,10.3,12z M18.3,17.3
			c0.4-0.2,1.4-0.3,2.2-0.3c0.3,0,0.6,0,0.8,0c0.1,0,0.3,0,0.4,0c-0.1,0.2-0.1,0.3-0.1,0.5c0,0.3,0.2,0.6,0.5,0.7
			c0.2,0.1,0.4,0.3,0.7,0.4c0.8,0.5,1.6,1.1,2.4,1.1c0.7,0,1.2-0.4,1.3-0.6c0,0,0,0,0,0c0.1-0.1,0.2-0.2,0.3-0.3
			c0.2,0,0.3,0.1,0.5,0.1c0.6,0.2,1.7,0.4,1.9,0.7c0.4,0.4,0.8,1.3,1,2.1c0.1,0.4,0.3,0.7,0.4,1.1c0.1,0.1,0.1,0.3,0.2,0.4
			c0.4,1,1,2.1,2,2.9c0.5,0.3,1.1,0.4,1.6,0.5c0.1,0,0.1,0,0.2,0c-0.3,0.4-0.8,0.9-1.2,1.3c-1.2,1.1-2.7,2.5-2,4.8
			c0.3,1.1,0.3,1.2-0.2,1.7c-0.1,0.1-0.1,0.1-0.2,0.2c-0.4,0.5-0.8,0.9-1.1,1.8c-0.1,0.3-0.2,0.4-0.4,0.6c-0.2,0.2-0.4,0.4-0.5,0.7
			c-0.2,0.4-0.3,0.7-0.4,1c-0.1,0.3-0.1,0.4-0.2,0.6c-0.3,0.3-0.7,0.8-1.2,1.1c-0.5,0.3-0.7,0.3-0.8,0.3c-0.1-0.1-0.5-0.6-1.1-2.3
			c-0.1-0.4-0.3-0.8-0.5-1.3c-0.4-0.9-0.8-1.9-0.6-2.5c0-0.1,0-0.1,0.1-0.2c0.3-1,0.7-2,0.1-3.4c-0.2-0.4-0.5-0.7-0.7-1
			c-0.2-0.2-0.3-0.4-0.4-0.5c0-0.1,0-0.3,0-0.5c0-0.5,0-1.3-0.8-2c-1.1-1-2.3-0.7-3.2-0.5c-0.3,0.1-0.5,0.1-0.7,0.1
			c-1.4,0.2-2.6-0.4-3.4-1.4c-0.8-1.1-0.9-2.6-0.3-3.9c0.3-0.6,0.7-1.1,1.3-1.7c0.1-0.1,0.2-0.3,0.3-0.4c0.2-0.2,0.4-0.5,0.6-0.8
			C17.6,18.1,18,17.5,18.3,17.3z"/>
	</g>
</g>
<g>
	<g>
		<path class="st0" d="M40,33.6l-0.5-1.8c-0.1-0.4-0.4-0.7-0.8-0.7c-0.4,0-0.8,0.2-1,0.5c-0.1,0.2-0.2,0.4-0.3,0.6
			c-0.2,0.3-0.3,0.7-0.5,0.9c-0.1,0.1-0.3,0.2-0.6,0.3c-0.6,0.3-1.3,0.6-1.6,1.6c-0.2,0.6-0.1,1-0.1,1.4c0,0.3,0,0.4,0,0.6l0,0
			c-0.3,0.7-0.9,2.1-0.1,3.2c0.6,0.8,1.2,1,1.7,1c0.1,0,0.2,0,0.3,0c1-0.2,1.7-1.2,2.4-3.3l1.2-3.9C40.1,33.9,40.1,33.7,40,33.6z
			 M37,37.4c-0.3,1.1-0.6,1.5-0.8,1.8c0,0,0,0-0.1-0.1c-0.2-0.3,0.1-0.9,0.3-1.4l0,0c0.3-0.7,0.2-1.2,0.2-1.6c0-0.3,0-0.4,0-0.5
			c0-0.1,0.3-0.2,0.6-0.4c0.2-0.1,0.3-0.2,0.5-0.3L37,37.4z"/>
	</g>
</g>
<g>
	<g>
		<path class="st0" d="M26.4,11.6L26.4,11.6c-0.6-0.2-1.1,0.1-1.3,0.6c-0.2,0.5,0.1,1.1,0.6,1.2l0.1,0c0.1,0,0.2,0.1,0.3,0.1
			c0.4,0,0.8-0.3,0.9-0.7C27.1,12.3,26.9,11.7,26.4,11.6z"/>
	</g>
</g>
</svg>
