<?xml version="1.0" encoding="utf-8"?>
<!-- Generator: Adobe Illustrator 27.0.0, SVG Export Plug-In . SVG Version: 6.00 Build 0)  -->
<svg version="1.1" id="圖層_1" xmlns="http://www.w3.org/2000/svg" xmlns:xlink="http://www.w3.org/1999/xlink" x="0px" y="0px"
	 viewBox="0 0 106.7 60" style="enable-background:new 0 0 106.7 60;" xml:space="preserve">
<style type="text/css">
	.st0{fill:#F2AB39;}
</style>
<g id="Layer_24">
	<path class="st0" d="M106.4,34.1c-0.3-0.5-0.8-0.8-1.4-0.8H88.3c-0.6,0-1.2,0.4-1.5,0.9l-4.5,9.1H80v-25c0-0.9-0.8-1.7-1.7-1.7h-40
		c-0.9,0-1.7,0.8-1.7,1.7v25h-0.5l-2.9-8.6v-6.4c0-2.8-2.2-5-5-5h-5V5c0-2.8-2.2-5-5-5s-5,2.2-5,5v18.3h-5c-2.8,0-5,2.2-5,5v6.4
		l-3.2,9.8c-0.1,0.4-0.1,0.8,0,1.1l4.2,11.2C5,58.7,6.9,60,9,60h83.8c2,0,3.8-1.2,4.6-3l9.1-21.3C106.8,35.1,106.7,34.5,106.4,34.1z
		 M60,33.3h16.7v10H60V33.3z M76.7,30H60V20h16.7V30z M40,20h16.7v10H40V20z M40,33.3h16.7v10H40V33.3z M6.2,36.7l24.3,0l2.2,6.7H4
		L6.2,36.7z M16.7,5c0-0.9,0.8-1.7,1.7-1.7C19.3,3.3,20,4.1,20,5v18.3h-3.3V5z M8.3,26.7h20c0.9,0,1.7,0.8,1.7,1.7v5H6.7v-5
		C6.7,27.4,7.4,26.7,8.3,26.7z M96.8,50H71.7c-0.9,0-1.7,0.8-1.7,1.7c0,0.9,0.8,1.7,1.7,1.7h23.7l-1,2.3c-0.3,0.6-0.9,1-1.5,1H9
		c-0.7,0-1.3-0.4-1.6-1.1l-0.8-2.2H65c0.9,0,1.7-0.8,1.7-1.7c0-0.9-0.8-1.7-1.7-1.7H5.3l-1.2-3.3h79.3c0.6,0,1.2-0.4,1.5-0.9
		l4.5-9.1h13.1L96.8,50z"/>
	<path class="st0" d="M16.7,38.3H10c-0.9,0-1.7,0.8-1.7,1.7s0.8,1.7,1.7,1.7h6.7c0.9,0,1.7-0.8,1.7-1.7S17.6,38.3,16.7,38.3z"/>
	<path class="st0" d="M26.7,38.3h-3.3c-0.9,0-1.7,0.8-1.7,1.7s0.8,1.7,1.7,1.7h3.3c0.9,0,1.7-0.8,1.7-1.7S27.6,38.3,26.7,38.3z"/>
	<path class="st0" d="M43.3,35c-0.9,0-1.7,0.8-1.7,1.7V40c0,0.9,0.8,1.7,1.7,1.7c0.9,0,1.7-0.8,1.7-1.7v-3.3
		C45,35.8,44.3,35,43.3,35z"/>
	<path class="st0" d="M53.3,35c-0.9,0-1.7,0.8-1.7,1.7V40c0,0.9,0.8,1.7,1.7,1.7c0.9,0,1.7-0.8,1.7-1.7v-3.3
		C55,35.8,54.3,35,53.3,35z"/>
	<path class="st0" d="M48.3,35c-0.9,0-1.7,0.8-1.7,1.7V40c0,0.9,0.8,1.7,1.7,1.7c0.9,0,1.7-0.8,1.7-1.7v-3.3
		C50,35.8,49.3,35,48.3,35z"/>
	<path class="st0" d="M63.3,35c-0.9,0-1.7,0.8-1.7,1.7V40c0,0.9,0.8,1.7,1.7,1.7S65,40.9,65,40v-3.3C65,35.8,64.3,35,63.3,35z"/>
	<path class="st0" d="M73.3,35c-0.9,0-1.7,0.8-1.7,1.7V40c0,0.9,0.8,1.7,1.7,1.7c0.9,0,1.7-0.8,1.7-1.7v-3.3
		C75,35.8,74.3,35,73.3,35z"/>
	<path class="st0" d="M68.3,35c-0.9,0-1.7,0.8-1.7,1.7V40c0,0.9,0.8,1.7,1.7,1.7c0.9,0,1.7-0.8,1.7-1.7v-3.3
		C70,35.8,69.3,35,68.3,35z"/>
	<path class="st0" d="M43.3,21.7c-0.9,0-1.7,0.8-1.7,1.7v3.3c0,0.9,0.8,1.7,1.7,1.7c0.9,0,1.7-0.8,1.7-1.7v-3.3
		C45,22.4,44.3,21.7,43.3,21.7z"/>
	<path class="st0" d="M53.3,21.7c-0.9,0-1.7,0.8-1.7,1.7v3.3c0,0.9,0.8,1.7,1.7,1.7c0.9,0,1.7-0.8,1.7-1.7v-3.3
		C55,22.4,54.3,21.7,53.3,21.7z"/>
	<path class="st0" d="M48.3,21.7c-0.9,0-1.7,0.8-1.7,1.7v3.3c0,0.9,0.8,1.7,1.7,1.7c0.9,0,1.7-0.8,1.7-1.7v-3.3
		C50,22.4,49.3,21.7,48.3,21.7z"/>
	<path class="st0" d="M63.3,28.3c0.9,0,1.7-0.8,1.7-1.7v-3.3c0-0.9-0.8-1.7-1.7-1.7s-1.7,0.8-1.7,1.7v3.3
		C61.7,27.6,62.4,28.3,63.3,28.3z"/>
	<path class="st0" d="M73.3,28.3c0.9,0,1.7-0.8,1.7-1.7v-3.3c0-0.9-0.8-1.7-1.7-1.7c-0.9,0-1.7,0.8-1.7,1.7v3.3
		C71.7,27.6,72.4,28.3,73.3,28.3z"/>
	<path class="st0" d="M68.3,28.3c0.9,0,1.7-0.8,1.7-1.7v-3.3c0-0.9-0.8-1.7-1.7-1.7c-0.9,0-1.7,0.8-1.7,1.7v3.3
		C66.7,27.6,67.4,28.3,68.3,28.3z"/>
</g>
</svg>
