<?xml version="1.0" encoding="utf-8"?>
<!-- Generator: Adobe Illustrator 27.0.0, SVG Export Plug-In . SVG Version: 6.00 Build 0)  -->
<svg version="1.1" id="圖層_1" xmlns="http://www.w3.org/2000/svg" xmlns:xlink="http://www.w3.org/1999/xlink" x="0px" y="0px"
	 viewBox="0 0 88.9 50" style="enable-background:new 0 0 88.9 50;" xml:space="preserve">
<style type="text/css">
	.st0{fill:#F2AB39;}
</style>
<g id="Layer_6">
	<path class="st0" d="M82.9,23l-0.4-0.1c-2.6-0.4-4.9-1.7-6.4-3.8L63.9,2.8C62.6,1,60.5,0,58.3,0H6.9C3.1,0,0,3.1,0,6.9v30.6
		c0,3.8,3.1,6.9,6.9,6.9h2.3c2.3,4.8,8.1,6.9,12.9,4.6c2-1,3.7-2.6,4.6-4.6h35.2c2.3,4.8,8.1,6.9,12.9,4.6c2-1,3.7-2.6,4.6-4.6h2.3
		c3.8,0,6.9-3.1,6.9-6.9v-7.7C88.9,26.4,86.3,23.4,82.9,23z M86.1,33.3h-1.4c-1.8,0-3.3-1.1-3.9-2.8h5.3V33.3z M2.8,30.6
		c0.8,0,1.4,0.6,1.4,1.4v2.8c0,0.8-0.6,1.4-1.4,1.4V30.6z M18.1,47.2c-3.8,0-6.9-3.1-6.9-6.9s3.1-6.9,6.9-6.9s6.9,3.1,6.9,6.9
		S21.9,47.2,18.1,47.2z M70.8,47.2c-3.8,0-6.9-3.1-6.9-6.9s3.1-6.9,6.9-6.9s6.9,3.1,6.9,6.9S74.7,47.2,70.8,47.2z M81.9,41.7h-1.5
		c0.8-5.3-2.8-10.3-8.1-11.1c-5.3-0.8-10.3,2.8-11.1,8.1c-0.2,1-0.2,2,0,2.9H27.7c0.8-5.3-2.8-10.3-8.1-11.1
		c-5.3-0.8-10.3,2.8-11.1,8.1c-0.2,1-0.2,2,0,2.9H6.9c-1.8,0-3.3-1.1-3.9-2.8c2.2-0.1,3.9-1.9,3.9-4.1v-2.8c0-2.3-1.9-4.2-4.2-4.2
		V6.9c0-2.3,1.9-4.2,4.2-4.2h51.4c1.3,0,2.6,0.6,3.3,1.7l12.2,16.3c2,2.7,4.9,4.4,8.2,4.9l0.4,0.1c1.3,0.2,2.4,1,3,2.1h-6.4
		c-0.8,0-1.4,0.6-1.4,1.4c0,3.8,3.1,6.9,6.9,6.9h1.4v1.4C86.1,39.8,84.3,41.7,81.9,41.7z"/>
	<path class="st0" d="M64.7,11.7c-0.5-0.6-1.3-0.7-1.9-0.3c-0.6,0.5-0.7,1.3-0.3,1.9l4,5.3c0.5,0.6,0.3,1.5-0.3,1.9
		c-0.2,0.2-0.5,0.3-0.8,0.3H51.4c-0.8,0-1.4-0.6-1.4-1.4V8.3c0-0.8,0.6-1.4,1.4-1.4h5.6c0.4,0,0.9,0.2,1.1,0.6l1.3,1.7
		c0.5,0.6,1.3,0.7,1.9,0.3C61.9,9,62,8.1,61.5,7.5l0,0l-1.3-1.7c-0.8-1-2-1.7-3.3-1.7h-5.6c-2.3,0-4.2,1.9-4.2,4.2v11.1
		c0,2.3,1.9,4.2,4.2,4.2h13.9c2.3,0,4.2-1.9,4.2-4.2c0-0.9-0.3-1.8-0.8-2.5L64.7,11.7z"/>
	<path class="st0" d="M40.3,4.2H8.3C6,4.2,4.2,6,4.2,8.3v11.1c0,2.3,1.9,4.2,4.2,4.2h31.9c2.3,0,4.2-1.9,4.2-4.2V8.3
		C44.4,6,42.6,4.2,40.3,4.2z M6.9,19.4V8.3c0-0.8,0.6-1.4,1.4-1.4h8.3v13.9H8.3C7.6,20.8,6.9,20.2,6.9,19.4z M19.4,6.9h9.7v13.9
		h-9.7V6.9z M41.7,19.4c0,0.8-0.6,1.4-1.4,1.4h-8.3V6.9h8.3c0.8,0,1.4,0.6,1.4,1.4V19.4z"/>
	<path class="st0" d="M70.8,36.1c-2.3,0-4.2,1.9-4.2,4.2s1.9,4.2,4.2,4.2s4.2-1.9,4.2-4.2S73.1,36.1,70.8,36.1z M70.8,41.7
		c-0.8,0-1.4-0.6-1.4-1.4s0.6-1.4,1.4-1.4s1.4,0.6,1.4,1.4S71.6,41.7,70.8,41.7z"/>
	<path class="st0" d="M18.1,36.1c-2.3,0-4.2,1.9-4.2,4.2s1.9,4.2,4.2,4.2s4.2-1.9,4.2-4.2S20.4,36.1,18.1,36.1z M18.1,41.7
		c-0.8,0-1.4-0.6-1.4-1.4s0.6-1.4,1.4-1.4s1.4,0.6,1.4,1.4S18.8,41.7,18.1,41.7z"/>
	<path class="st0" d="M54.2,25h-2.8c-0.8,0-1.4,0.6-1.4,1.4c0,0.8,0.6,1.4,1.4,1.4h2.8c0.8,0,1.4-0.6,1.4-1.4
		C55.6,25.6,54.9,25,54.2,25z"/>
	<path class="st0" d="M40.3,25c-0.8,0-1.4,0.6-1.4,1.4v1.4c0,0.8,0.6,1.4,1.4,1.4s1.4-0.6,1.4-1.4v-1.4C41.7,25.6,41,25,40.3,25z"/>
</g>
</svg>
